<?xml version="1.0" encoding="utf-8"?>
<!-- Generator: Adobe Illustrator 19.2.1, SVG Export Plug-In . SVG Version: 6.00 Build 0)  -->
<svg version="1.1" id="Layer_1" xmlns:sketch="http://www.bohemiancoding.com/sketch/ns"
	 xmlns="http://www.w3.org/2000/svg" xmlns:xlink="http://www.w3.org/1999/xlink" x="0px" y="0px" viewBox="0 0 128 14"
	 style="enable-background:new 0 0 128 14;" xml:space="preserve">
<style type="text/css">
	.st0{fill:#FFFFFF;}
	.st1{fill:#A09FA2;}
</style>
<title>Braintree</title>
<desc>Created with Sketch.</desc>
<g>
	<g id="Page-1" sketch:type="MSPage">
		<g id="_x31_-Start" transform="translate(-844.000000, -868.000000)" sketch:type="MSArtboardGroup">
			<g id="bt-copy" transform="translate(814.000000, 850.000000)" sketch:type="MSLayerGroup">
				<g id="Braintree" transform="translate(30.000000, 18.000000)" sketch:type="MSShapeGroup">
					<path id="Fill-1" class="st0" d="M3.8,10.2h1.9c1.5,0,2.2-0.5,2.2-1.4S7.1,7.4,5.6,7.4H3.8V10.2L3.8,10.2L3.8,10.2z M3.8,3.4V6
						h1.7c1.3,0,1.9-0.5,1.9-1.3c0-0.9-0.7-1.3-1.9-1.3L3.8,3.4L3.8,3.4L3.8,3.4z M1.1,11.6v-1.4h1.1V3.4H1.1V1.9h4.5
						c2.1,0,3.3,1,3.3,2.6c0,1.1-0.6,1.8-1.4,2.1c1.2,0.3,2,1.1,2,2.3c0,1.8-1.4,2.8-3.6,2.8L1.1,11.6L1.1,11.6z M17.7,6.6
						c-0.2-0.6-0.6-0.9-1.1-0.9c-1.3,0-2.5,1-2.5,2.7v1.8h2.5v1.4h-5.7v-1.4h1.6V5.9h-1.2V4.5H14v1.2c0.4-0.8,1.4-1.4,2.6-1.4
						c1.4,0,2.2,0.8,2.5,1.9L17.7,6.6z M25.2,8.7c-0.5-0.2-1.2-0.3-1.8-0.3c-0.9,0-1.8,0.3-1.8,1.2c0,0.6,0.6,0.9,1.4,0.9
						c1.1,0,2.3-0.6,2.3-1.6L25.2,8.7L25.2,8.7z M25.2,7.5V7.1c0-1-0.8-1.4-1.7-1.4c-0.8,0-1.5,0.3-2.1,0.9l-1-1.1
						c0.7-0.7,1.7-1.2,3.1-1.2c1.8,0,3.2,1,3.2,2.8v3.2h1v1.4h-2.6v-0.8c-0.4,0.6-1.4,1-2.5,1c-1.5,0-2.8-0.8-2.8-2.2
						c0-1.8,1.7-2.4,3.3-2.4C24.1,7.2,24.7,7.3,25.2,7.5z M32.3,0.9H34v2.2h-1.7V0.9z M36.7,10.2v1.4h-7.2v-1.4h3V5.9h-2.3V4.5H34
						v5.7H36.7L36.7,10.2z M38.5,10.2h1.1V5.9h-1V4.5h2.5v0.9c0.4-0.7,1.3-1.1,2.4-1.1c1.6,0,2.7,1,2.7,2.6v3.3h1.1v1.4h-3.7v-1.4
						h1.1V7.3c0-1.2-0.8-1.6-1.4-1.6c-1.1,0-2.3,0.8-2.3,2.1v2.4h1.1v1.4h-3.7v-1.4H38.5z M49.4,5.9h-1.9V4.5h1.9V1.9h1.5v2.6h3.5
						v1.4h-3.5v3c0,1.1,0.8,1.6,1.7,1.6c0.8,0,1.5-0.5,2.1-1l1,1c-0.7,0.7-1.7,1.4-3.1,1.4c-1.8,0-3.1-1-3.1-2.9L49.4,5.9L49.4,5.9z
						 M63.7,6.6c-0.2-0.6-0.6-0.9-1.1-0.9c-1.3,0-2.5,1-2.5,2.7v1.8h2.5v1.4h-5.5v-1.4h1.6V5.9h-1.2V4.5h2.7v1.2
						c0.2-0.8,1.2-1.4,2.4-1.4c1.4,0,2.2,0.8,2.5,1.9L63.7,6.6z M67.7,7.3h4.4c-0.2-1-1.1-1.7-2.1-1.7C68.8,5.6,67.9,6.3,67.7,7.3z
						 M73.6,10.5c-0.7,0.8-2.1,1.3-3.5,1.3c-2.4,0-4.1-1.6-4.1-3.8s1.6-3.8,3.9-3.8s3.8,1.7,3.8,4.1v0.3h-6.2
						c0.3,1.2,1.2,1.9,2.5,1.9c1.1,0,2-0.4,2.5-1L73.6,10.5z M76.8,7.3h4.4c-0.2-1-1.1-1.7-2.1-1.7C78,5.6,77.1,6.3,76.8,7.3z
						 M82.8,10.5c-0.7,0.8-2.1,1.3-3.5,1.3c-2.4,0-4.1-1.6-4.1-3.8c0-2.1,1.6-3.7,3.9-3.7s3.8,1.7,3.8,4.1v0.3h-6.2
						c0.3,1.2,1.2,1.9,2.5,1.9c1.1,0,2-0.4,2.5-1L82.8,10.5L82.8,10.5z"/>
				</g>
			</g>
		</g>
	</g>
	<g>
		<path class="st1" d="M91.1,12.5v0.9h-5.8v-0.9H91.1z"/>
		<path class="st1" d="M99.4,10.6h1v0.9h-2v-0.9c-0.3,0.7-1.3,1.1-2.3,1.1c-1.3,0-2.4-0.7-2.4-2c0-1.5,1.5-2.1,2.9-2.1
			c0.8,0,1.4,0.2,1.8,0.3V7.3c0-1.1-0.8-1.5-1.7-1.5c-0.8,0-1.5,0.4-2,0.9l-0.6-0.6C94.6,5.6,95.4,5,96.7,5c1.5,0,2.7,0.8,2.7,2.4
			C99.4,7.4,99.4,10.6,99.4,10.6z M98.4,8.8c-0.5-0.2-1.1-0.3-1.8-0.3c-1,0-2,0.3-2,1.2c0,0.8,0.7,1.2,1.5,1.2
			c1.1,0,2.3-0.7,2.3-1.8V8.8z"/>
		<path class="st1" d="M109.3,10.6v0.9h-1.9v-0.9c-0.4,0.7-1.3,1.1-2.3,1.1c-1.3,0-2.3-0.8-2.3-2.3V6h-1.1V5.2h2v4
			c0,1.2,0.7,1.7,1.5,1.7c1,0,2.2-0.8,2.2-2V6h-1.2V5.2h2.1v5.4H109.3z"/>
		<path class="st1" d="M115.2,10.8c0.9,0,1.6-0.5,2-0.9l0.6,0.6c-0.5,0.5-1.4,1.2-2.6,1.2c-1.5,0-2.7-0.9-2.7-2.6v-3h-1.7V5.2h1.7
			V2.8h0.9v2.4h3.4v0.9h-3.4v3C113.4,10.3,114.3,10.8,115.2,10.8z"/>
		<path class="st1" d="M119.4,10.6h1V3.1h-1V2.3h1.9v3.8c0.4-0.7,1.3-1.1,2.3-1.1c1.4,0,2.3,0.8,2.3,2.3v3.3h1v0.9h-3v-0.9h1V7.5
			c0-1.2-0.7-1.7-1.5-1.7c-1,0-2.2,0.8-2.2,2v2.8h1v0.9h-3v-0.9H119.4z"/>
	</g>
</g>
</svg>
