<?xml version="1.0" encoding="UTF-8" standalone="no"?>
<svg width="160px" height="15px" viewBox="0 0 160 15" version="1.1" xmlns="http://www.w3.org/2000/svg" xmlns:xlink="http://www.w3.org/1999/xlink" xmlns:sketch="http://www.bohemiancoding.com/sketch/ns">
    <!-- Generator: Sketch 3.3.2 (12043) - http://www.bohemiancoding.com/sketch -->
    <title>Braintree</title>
    <desc>Created with Sketch.</desc>
    <defs></defs>
    <g id="Page-1" stroke="none" stroke-width="1" fill="none" fill-rule="evenodd" sketch:type="MSPage">
        <g id="1-Start" sketch:type="MSArtboardGroup" transform="translate(-844.000000, -868.000000)">
            <g id="bt-copy" sketch:type="MSLayerGroup" transform="translate(814.000000, 850.000000)">
                <g id="Braintree" transform="translate(30.000000, 18.000000)" sketch:type="MSShapeGroup">
                    <path d="M83.925,12.225 L83.925,13.11 L89.775,13.11 L89.775,12.225 L83.925,12.225 Z M91.71,5.805 L92.7,5.805 L92.7,13.185 L91.71,13.185 L91.71,14.07 L95.25,14.07 L95.25,13.185 L93.63,13.185 L93.63,10.215 C94.005,10.875 94.89,11.46 96.045,11.46 C97.86,11.46 99.21,10.035 99.21,8.085 C99.21,6.135 97.86,4.71 96.045,4.71 C94.89,4.71 94.005,5.31 93.63,5.97 L93.63,4.92 L91.71,4.92 L91.71,5.805 Z M98.235,8.085 C98.235,9.51 97.29,10.59 95.985,10.59 C94.635,10.59 93.63,9.585 93.63,8.25 L93.63,7.935 C93.63,6.6 94.635,5.58 95.985,5.58 C97.29,5.58 98.235,6.675 98.235,8.085 L98.235,8.085 Z M106.74,7.065 C106.74,5.52 105.615,4.71 104.085,4.71 C102.81,4.71 101.97,5.28 101.475,5.805 L102.105,6.465 C102.615,5.925 103.275,5.565 104.07,5.565 C104.985,5.565 105.78,6.015 105.795,7.08 L105.795,7.665 C105.33,7.545 104.7,7.395 103.95,7.395 C102.57,7.395 101.055,7.95 101.055,9.48 C101.055,10.785 102.135,11.46 103.425,11.46 C104.415,11.46 105.405,11.055 105.795,10.395 L105.795,11.25 L107.745,11.25 L107.745,10.365 L106.74,10.365 L106.74,7.065 Z M105.795,8.805 C105.795,9.9 104.595,10.62 103.485,10.62 C102.69,10.62 102.015,10.245 102.015,9.465 C102.015,8.535 102.975,8.22 103.995,8.22 C104.655,8.22 105.3,8.34 105.795,8.52 L105.795,8.805 Z M116.625,6.06 C116.385,5.205 115.665,4.71 114.69,4.71 C113.535,4.71 112.605,5.385 112.215,6.105 L112.215,4.92 L109.965,4.92 L109.965,5.805 L111.285,5.805 L111.285,10.365 L109.65,10.365 L109.65,11.25 L114.705,11.25 L114.705,10.365 L112.215,10.365 L112.215,7.98 C112.215,6.69 113.415,5.565 114.675,5.565 C115.2,5.565 115.59,5.835 115.755,6.345 L116.625,6.06 Z M120.78,8.835 L120.78,5.805 L124.155,5.805 L124.155,4.92 L120.78,4.92 L120.78,2.55 L119.85,2.55 L119.85,4.92 L118.11,4.92 L118.11,5.805 L119.85,5.805 L119.85,8.895 C119.85,10.56 120.99,11.46 122.535,11.46 C123.78,11.46 124.65,10.815 125.145,10.305 L124.53,9.66 C124.095,10.095 123.42,10.59 122.535,10.59 C121.605,10.59 120.78,10.05 120.78,8.835 L120.78,8.835 Z M126.705,11.25 L129.675,11.25 L129.675,10.365 L128.655,10.365 L128.655,7.605 C128.655,6.405 129.78,5.595 130.815,5.595 C131.61,5.595 132.27,6.075 132.27,7.26 L132.27,10.365 L131.25,10.365 L131.25,11.25 L134.22,11.25 L134.22,10.365 L133.2,10.365 L133.2,7.02 C133.2,5.535 132.285,4.71 130.935,4.71 C129.93,4.71 129.075,5.145 128.655,5.85 L128.655,4.92 L126.795,4.92 L126.795,5.805 L127.725,5.805 L127.725,10.365 L126.705,10.365 L126.705,11.25 Z M136.8,7.545 C137.01,6.375 137.955,5.565 139.14,5.565 C140.265,5.565 141.165,6.39 141.33,7.545 L136.8,7.545 Z M141.6,9.645 C141.075,10.215 140.25,10.605 139.275,10.605 C137.91,10.605 136.905,9.675 136.755,8.355 L142.395,8.355 L142.395,8.16 C142.395,6.255 141.105,4.71 139.14,4.71 C137.205,4.71 135.765,6.135 135.765,8.07 C135.765,9.99 137.205,11.46 139.275,11.46 C140.505,11.46 141.585,10.98 142.245,10.305 L141.6,9.645 Z M151.425,6.06 C151.185,5.205 150.465,4.71 149.49,4.71 C148.335,4.71 147.405,5.385 147.015,6.105 L147.015,4.92 L144.765,4.92 L144.765,5.805 L146.085,5.805 L146.085,10.365 L144.45,10.365 L144.45,11.25 L149.505,11.25 L149.505,10.365 L147.015,10.365 L147.015,7.98 C147.015,6.69 148.215,5.565 149.475,5.565 C150,5.565 150.39,5.835 150.555,6.345 L151.425,6.06 Z M158.595,9.615 C158.595,10.275 157.89,10.62 156.93,10.62 C155.67,10.62 154.395,10.05 154.32,9.015 L153.54,9.015 L153.54,11.25 L154.41,11.25 L154.41,10.53 C154.935,11.13 155.85,11.46 156.96,11.46 C158.475,11.46 159.555,10.755 159.555,9.585 C159.555,8.19 158.085,7.845 156.78,7.62 C155.64,7.425 154.575,7.245 154.575,6.48 C154.575,5.82 155.31,5.55 156.075,5.55 C157.245,5.55 158.265,6.12 158.34,7.05 L159.12,7.05 L159.12,4.92 L158.25,4.92 L158.25,5.565 C157.875,5.115 157.11,4.71 156.03,4.71 C154.785,4.71 153.615,5.265 153.615,6.51 C153.615,7.98 155.205,8.25 156.585,8.505 C157.65,8.7 158.595,8.88 158.595,9.615 L158.595,9.615 Z" id="_partners-copy" fill="#A09FA2"></path>
                    <path d="M2.692375,9.9028475 L4.6081875,9.9028475 C6.087375,9.9028475 6.82675,9.4180975 6.82675,8.482285 C6.82675,7.5630975 6.036625,7.06216 4.4905,7.06216 L2.692375,7.06216 L2.692375,9.9028475 L2.692375,9.9028475 L2.692375,9.9028475 Z M2.692375,3.0515975 L2.692375,5.69191 L4.3728125,5.69191 C5.63325,5.69191 6.288625,5.223785 6.288625,4.371535 C6.288625,3.50266 5.616625,3.05116 4.3561875,3.05116 L2.692375,3.05116 L2.692375,3.0515975 L2.692375,3.0515975 Z M0.0205625,11.3229725 L0.0205625,9.9028475 L1.14625,9.9028475 L1.14625,3.0515975 L0.0205625,3.0515975 L0.0205625,1.631035 L4.5241875,1.631035 C6.591375,1.631035 7.851375,2.5834725 7.851375,4.23766 C7.851375,5.323535 7.2130625,5.992035 6.4063125,6.30966 C7.5656875,6.627285 8.3895,7.4458475 8.3895,8.56541 C8.3895,10.33641 7.011375,11.322535 4.7595625,11.322535 L0.0205625,11.322535 L0.0205625,11.3229725 Z M16.557625,6.2768475 C16.389625,5.708535 15.9691875,5.374285 15.414875,5.374285 C14.12075,5.374285 12.894,6.3267225 12.894,8.0644725 L12.894,9.9028475 L15.3811875,9.9028475 L15.3811875,11.3229725 L9.835,11.3229725 L9.835,9.9028475 L11.4148125,9.9028475 L11.4148125,5.6249725 L10.1714375,5.6249725 L10.1714375,4.20441 L12.8769375,4.20441 L12.8769375,5.407535 C13.330625,4.57191 14.2550625,3.9703475 15.4818125,3.9703475 C16.8599375,3.9703475 17.717,4.75566 17.969,5.8752225 L16.557625,6.2768475 Z M24.12025,8.4485975 C23.6499375,8.2814725 22.94425,8.1475975 22.2884375,8.1475975 C21.347375,8.1475975 20.4395625,8.4485975 20.4395625,9.3008475 C20.4395625,9.93566 21.0109375,10.23666 21.800625,10.23666 C22.8930625,10.23666 24.1198125,9.6517225 24.1198125,8.6489725 L24.1198125,8.4485975 L24.12025,8.4485975 Z M24.12025,7.1789725 L24.12025,6.777785 C24.12025,5.775035 23.3135,5.3572225 22.4398125,5.3572225 C21.6164375,5.3572225 20.9103125,5.6914725 20.3389375,6.2094725 L19.3641875,5.1568475 C20.036625,4.5382225 20.9943125,3.9703475 22.4398125,3.9703475 C24.2379375,3.9703475 25.6326875,4.9232225 25.6326875,6.7274725 L25.6326875,9.9028475 L26.6748125,9.9028475 L26.6748125,11.3229725 L24.12025,11.3229725 L24.12025,10.57091 C23.7339375,11.189535 22.6918125,11.557035 21.66675,11.557035 C20.188,11.557035 18.9105,10.8049725 18.9105,9.31791 C18.9105,7.5630975 20.6416875,6.895035 22.2210625,6.895035 C22.9945625,6.895035 23.632875,7.0450975 24.12025,7.1789725 Z M31.229625,0.61166 L32.8934375,0.61166 L32.8934375,2.7838475 L31.229625,2.7838475 L31.229625,0.61166 Z M35.64925,9.9028475 L35.64925,11.3229725 L28.4230625,11.3229725 L28.4230625,9.9028475 L31.41425,9.9028475 L31.41425,5.6249725 L29.12875,5.6249725 L29.12875,4.20441 L32.893,4.20441 L32.893,9.90241 L35.64925,9.90241 L35.64925,9.9028475 Z M37.4311875,9.9028475 L38.523625,9.9028475 L38.523625,5.6249725 L37.498125,5.6249725 L37.498125,4.20441 L39.98575,4.20441 L39.98575,5.12316 C40.4228125,4.42141 41.3301875,3.9703475 42.43925,3.9703475 C44.0356875,3.9703475 45.178875,4.9730975 45.178875,6.594035 L45.178875,9.90241 L46.270875,9.90241 L46.270875,11.322535 L42.557375,11.322535 L42.557375,9.90241 L43.6996875,9.90241 L43.6996875,6.994785 C43.6996875,5.75841 42.94325,5.407535 42.2541875,5.407535 C41.1285,5.407535 40.002375,6.24316 40.002375,7.5298475 L40.002375,9.9028475 L41.145125,9.9028475 L41.145125,11.3229725 L37.4311875,11.3229725 L37.4311875,9.9028475 L37.4311875,9.9028475 Z M48.304375,5.624535 L46.438875,5.624535 L46.438875,4.20441 L48.304375,4.20441 L48.304375,1.631035 L49.7835625,1.631035 L49.7835625,4.20441 L53.262125,4.20441 L53.262125,5.624535 L49.7835625,5.624535 L49.7835625,8.6157225 C49.7835625,9.71866 50.5570625,10.17016 51.447375,10.17016 C52.2878125,10.17016 52.9935,9.702035 53.5145625,9.184035 L54.506375,10.20341 C53.851,10.90516 52.8425625,11.557035 51.4478125,11.557035 C49.650125,11.557035 48.3048125,10.57091 48.3048125,8.6664725 L48.3048125,5.624535 L48.304375,5.624535 Z M62.5725625,6.2768475 C62.4045625,5.708535 61.9845625,5.374285 61.43025,5.374285 C60.136125,5.374285 58.909375,6.3267225 58.909375,8.0644725 L58.909375,9.9028475 L61.397,9.9028475 L61.397,11.3229725 L55.8508125,11.3229725 L55.8508125,9.9028475 L57.4301875,9.9028475 L57.4301875,5.6249725 L56.186375,5.6249725 L56.186375,4.20441 L58.8923125,4.20441 L58.8923125,5.407535 C59.346,4.57191 60.2704375,3.9703475 61.4971875,3.9703475 C62.874875,3.9703475 63.732375,4.75566 63.984375,5.8752225 L62.5725625,6.2768475 Z M66.5564375,7.0284725 L70.959,7.0284725 C70.7406875,6.0090975 69.8333125,5.3239725 68.824875,5.3239725 C67.682125,5.3239725 66.8084375,6.0257225 66.5564375,7.0284725 Z M72.5221875,10.23666 C71.78325,11.0053475 70.4720625,11.557035 69.0099375,11.557035 C66.6071875,11.557035 64.9263125,9.9527225 64.9263125,7.76391 C64.9263125,5.57466 66.556875,3.9703475 68.8253125,3.9703475 C71.077125,3.9703475 72.6569375,5.69191 72.6569375,8.030785 L72.6569375,8.2814725 L66.4890625,8.2814725 C66.7410625,9.4679725 67.732875,10.1863475 69.027,10.1863475 C70.102375,10.1863475 71.026375,9.7523475 71.53125,9.20066 L72.5221875,10.23666 Z M75.7491875,7.0284725 L80.1521875,7.0284725 C79.933875,6.0090975 79.0265,5.3239725 78.0180625,5.3239725 C76.8753125,5.3239725 76.0011875,6.0257225 75.7491875,7.0284725 Z M81.7149375,10.23666 C80.976,11.0053475 79.6648125,11.557035 78.203125,11.557035 C75.7999375,11.557035 74.1190625,9.9527225 74.1190625,7.76391 C74.1190625,5.57466 75.7491875,3.9703475 78.0180625,3.9703475 C80.269875,3.9703475 81.850125,5.69191 81.850125,8.030785 L81.850125,8.2814725 L75.6818125,8.2814725 C75.93425,9.4679725 76.925625,10.1863475 78.21975,10.1863475 C79.295125,10.1863475 80.2195625,9.7523475 80.724,9.20066 L81.7149375,10.23666 L81.7149375,10.23666 Z" id="Fill-1" fill="#FFFFFF"></path>
                </g>
            </g>
        </g>
    </g>
</svg>
