<?xml version="1.0" encoding="UTF-8" standalone="no"?>
<svg width="151px" height="24px" viewBox="0 0 151 24" version="1.1" xmlns="http://www.w3.org/2000/svg" xmlns:xlink="http://www.w3.org/1999/xlink" xmlns:sketch="http://www.bohemiancoding.com/sketch/ns">
    <!-- Generator: Sketch 3.2.2 (9983) - http://www.bohemiancoding.com/sketch -->
    <title>pp_bt_h_black</title>
    <desc>Created with Sketch.</desc>
    <defs>
        <path id="path-1" d="M0.01415625,0.0230588235 L150.84782,0.0230588235 L150.84782,23.9858824 L0.01415625,23.9858824 L0.01415625,0.0230588235 Z"></path>
        <path id="path-3" d="M0.01415625,0.0230588235 L150.84782,0.0230588235 L150.84782,23.9858824 L0.01415625,23.9858824 L0.01415625,0.0230588235 Z"></path>
    </defs>
    <g id="Onboarding-Flow" stroke="none" stroke-width="1" fill="none" fill-rule="evenodd" sketch:type="MSPage">
        <g id="Artboard-23" sketch:type="MSArtboardGroup" transform="translate(-107.000000, -73.000000)">
            <g id="pp_bt_h_black" sketch:type="MSLayerGroup" transform="translate(107.000000, 73.000000)">
                <path d="M100.174108,7.17741176 C100.033489,7.04141176 99.8211453,6.97364706 99.5366047,6.97364706 L98.8375219,6.97364706 L98.5522734,8.76941176 L99.2827359,8.76941176 C99.6581125,8.76941176 99.9358109,8.67011765 100.115123,8.47011765 C100.294908,8.27082353 100.384564,8.01858824 100.384564,7.71435294 C100.384564,7.49223529 100.314255,7.31341176 100.174108,7.17741176 L100.174108,7.17741176 Z M100.647398,6.80729412 C100.876494,7.01294118 100.991159,7.29294118 100.991159,7.64611765 C100.991159,8.13176471 100.843463,8.51976471 100.548305,8.80964706 C100.253383,9.09976471 99.8112359,9.24494118 99.2209203,9.24494118 L98.4781891,9.24494118 L98.2372969,10.7569412 L97.6488688,10.7569412 L98.3238859,6.49882353 L99.6231938,6.49882353 C100.077138,6.49882353 100.418303,6.60117647 100.647398,6.80729412 L100.647398,6.80729412 Z" id="Fill-1" fill="#1A1918" sketch:type="MSShapeGroup"></path>
                <path d="M102.139231,8.32847059 C101.951189,8.44964706 101.806795,8.61035294 101.705814,8.80964706 C101.604361,9.00917647 101.55387,9.21835294 101.55387,9.43623529 C101.55387,9.70752941 101.631022,9.93105882 101.786033,10.1056471 C101.940572,10.2807059 102.139703,10.3682353 102.383191,10.3682353 C102.622195,10.3682353 102.835247,10.3054118 103.020694,10.18 C103.206377,10.0545882 103.35077,9.89082353 103.454111,9.68894118 C103.556744,9.48776471 103.608414,9.27788235 103.608414,9.06 C103.608414,8.79247059 103.531262,8.57317647 103.376252,8.40235294 C103.221948,8.23176471 103.022581,8.14588235 102.779094,8.14588235 C102.540089,8.14588235 102.326566,8.20682353 102.139231,8.32847059 L102.139231,8.32847059 Z M103.512623,7.82564706 C103.721192,7.94494118 103.883045,8.11058824 103.998183,8.32235294 C104.114028,8.53411765 104.171833,8.77364706 104.171833,9.04141176 C104.171833,9.34564706 104.096569,9.63811765 103.946041,9.91741176 C103.795277,10.1974118 103.582933,10.4247059 103.308302,10.5997647 C103.033906,10.7743529 102.719402,10.8618824 102.364552,10.8618824 C102.100538,10.8618824 101.8646,10.8023529 101.656031,10.6830588 C101.44817,10.5637647 101.284902,10.3967059 101.167169,10.1832941 C101.049672,9.96894118 100.991159,9.728 100.991159,9.46117647 C100.991159,9.15247059 101.066423,8.85952941 101.21648,8.58117647 C101.367008,8.30376471 101.580059,8.07835294 101.853983,7.90564706 C102.128614,7.73247059 102.442883,7.64611765 102.797969,7.64611765 C103.06623,7.64611765 103.304055,7.70588235 103.512623,7.82564706 L103.512623,7.82564706 Z" id="Fill-2" fill="#1A1918" sketch:type="MSShapeGroup"></path>
                <path d="M107.39238,10.7569412 L106.835803,10.7569412 L106.513984,8.44282353 L105.455569,10.7569412 L104.904655,10.7569412 L104.471709,7.74494118 L105.022152,7.74494118 L105.294895,10.1148235 L106.358973,7.74494118 L106.878744,7.74494118 L107.194428,10.1087059 L108.215566,7.74494118 L108.778984,7.74494118 L107.39238,10.7569412" id="Fill-3" fill="#1A1918" sketch:type="MSShapeGroup"></path>
                <path d="M109.846838,8.36517647 C109.650538,8.536 109.517469,8.74258824 109.447159,8.98541176 L111.241936,8.98541176 C111.246419,8.95247059 111.248306,8.90729412 111.248306,8.85011765 C111.248306,8.61976471 111.186727,8.43835294 111.062623,8.30682353 C110.938756,8.17529412 110.763219,8.10941176 110.536719,8.10941176 C110.272705,8.10941176 110.042194,8.19435294 109.846838,8.36517647 L109.846838,8.36517647 Z M111.474334,7.98258824 C111.67842,8.20682353 111.780581,8.49811765 111.780581,8.85623529 C111.780581,8.97552941 111.774447,9.07435294 111.761942,9.15247059 C111.749437,9.23082353 111.728911,9.32329412 111.700363,9.43011765 L109.373075,9.43011765 C109.36057,9.73858824 109.441497,9.97647059 109.614439,10.1428235 C109.787617,10.3091765 110.023083,10.3931765 110.319892,10.3931765 C110.526102,10.3931765 110.714144,10.3670588 110.883311,10.3155294 C111.052242,10.2644706 111.219522,10.1868235 111.384678,10.0844706 L111.309886,10.5470588 C110.992314,10.7611765 110.616938,10.868 110.18352,10.868 C109.89898,10.868 109.652425,10.8072941 109.444564,10.6861176 C109.235995,10.5644706 109.077209,10.3967059 108.967734,10.1832941 C108.858023,9.96894118 108.803994,9.728 108.803994,9.46117647 C108.803994,9.19788235 108.86982,8.92517647 109.001945,8.64329412 C109.133834,8.36141176 109.333673,8.12494118 109.60217,7.93364706 C109.870431,7.74188235 110.200508,7.64611765 110.591928,7.64611765 C110.97627,7.64611765 111.270013,7.75858824 111.474334,7.98258824 L111.474334,7.98258824 Z" id="Fill-4" fill="#1A1918" sketch:type="MSShapeGroup"></path>
                <path d="M113.884436,8.208 C113.640948,8.208 113.434267,8.29576471 113.265572,8.47011765 C113.096169,8.64517647 112.984806,8.89905882 112.931012,9.23270588 L112.689648,10.7569412 L112.139206,10.7569412 L112.615564,7.74494118 L113.147839,7.74494118 L113.067384,8.25717647 C113.314647,7.90376471 113.611692,7.72682353 113.95852,7.72682353 C114.044873,7.72682353 114.125328,7.73247059 114.20012,7.74494118 L114.125328,8.22682353 C114.051244,8.21435294 113.970789,8.208 113.884436,8.208" id="Fill-5" fill="#1A1918" sketch:type="MSShapeGroup"></path>
                <path d="M115.230459,8.36517647 C115.034395,8.536 114.901091,8.74258824 114.830781,8.98541176 L116.625558,8.98541176 C116.630041,8.95247059 116.631928,8.90729412 116.631928,8.85011765 C116.631928,8.61976471 116.570348,8.43835294 116.446481,8.30682353 C116.322378,8.17529412 116.146841,8.10941176 115.920341,8.10941176 C115.656327,8.10941176 115.425816,8.19435294 115.230459,8.36517647 L115.230459,8.36517647 Z M116.857956,7.98258824 C117.062042,8.20682353 117.164203,8.49811765 117.164203,8.85623529 C117.164203,8.97552941 117.158069,9.07435294 117.145564,9.15247059 C117.133059,9.23082353 117.112533,9.32329412 117.083984,9.43011765 L114.756697,9.43011765 C114.744192,9.73858824 114.825119,9.97647059 114.998297,10.1428235 C115.171239,10.3091765 115.406705,10.3931765 115.703514,10.3931765 C115.909723,10.3931765 116.097766,10.3670588 116.267169,10.3155294 C116.435864,10.2644706 116.603144,10.1868235 116.7683,10.0844706 L116.693508,10.5470588 C116.375936,10.7611765 116.000559,10.868 115.567142,10.868 C115.282837,10.868 115.036047,10.8072941 114.828186,10.6861176 C114.619617,10.5644706 114.460831,10.3967059 114.351356,10.1832941 C114.241645,9.96894118 114.187616,9.728 114.187616,9.46117647 C114.187616,9.19788235 114.253442,8.92517647 114.385567,8.64329412 C114.517456,8.36141176 114.717295,8.12494118 114.985792,7.93364706 C115.254053,7.74188235 115.58413,7.64611765 115.975786,7.64611765 C116.359892,7.64611765 116.653634,7.75858824 116.857956,7.98258824 L116.857956,7.98258824 Z" id="Fill-6" fill="#1A1918" sketch:type="MSShapeGroup"></path>
                <path d="M118.380225,10.0931765 C118.532641,10.2682353 118.741209,10.3557647 119.005223,10.3557647 C119.211905,10.3557647 119.40443,10.3 119.584214,10.1894118 C119.763527,10.0783529 119.906741,9.92352941 120.013856,9.72611765 C120.12168,9.52870588 120.175002,9.30658824 120.175002,9.06 C120.175002,8.78423529 120.09667,8.56070588 119.939772,8.39011765 C119.782873,8.21929412 119.587281,8.13411765 119.352052,8.13411765 C119.14537,8.13411765 118.949778,8.19129412 118.764331,8.30682353 C118.578177,8.42164706 118.430008,8.57811765 118.318409,8.77552941 C118.207047,8.97294118 118.151602,9.18917647 118.151602,9.42376471 C118.151602,9.69505882 118.227573,9.91858824 118.380225,10.0931765 L118.380225,10.0931765 Z M119.927267,10.7569412 L120.002059,10.2943529 C119.869463,10.4670588 119.704542,10.6035294 119.506355,10.7047059 C119.308403,10.8054118 119.083555,10.8555294 118.832045,10.8555294 C118.593041,10.8555294 118.378338,10.7978824 118.188408,10.6830588 C117.998478,10.5675294 117.850309,10.4072941 117.743194,10.2011765 C117.635606,9.99576471 117.582048,9.76094118 117.582048,9.49764706 C117.582048,9.16870588 117.661559,8.86117647 117.820345,8.57505882 C117.979131,8.28941176 118.187228,8.06211765 118.44558,7.89341176 C118.703223,7.72447059 118.970305,7.64 119.246823,7.64 C119.762347,7.64 120.115309,7.84 120.305239,8.23905882 L120.583645,6.49882353 L121.134559,6.49882353 L120.459542,10.7569412 L119.927267,10.7569412 L119.927267,10.7569412 Z" id="Fill-7" fill="#1A1918" sketch:type="MSShapeGroup"></path>
                <path d="M125.363975,8.40235294 C125.208964,8.22729412 124.999688,8.14047059 124.735673,8.14047059 C124.529464,8.14047059 124.337175,8.19576471 124.160458,8.30682353 C123.983033,8.41788235 123.840291,8.572 123.733175,8.76941176 C123.625588,8.96682353 123.57203,9.18917647 123.57203,9.43623529 C123.57203,9.712 123.650361,9.936 123.807495,10.1087059 C123.964158,10.2818824 124.157862,10.3682353 124.388845,10.3682353 C124.599302,10.3682353 124.797253,10.3105882 124.983408,10.1950588 C125.169091,10.0802353 125.317259,9.92305882 125.428622,9.72305882 C125.539984,9.52376471 125.596137,9.30658824 125.596137,9.07176471 C125.596137,8.80047059 125.518278,8.57741176 125.363975,8.40235294 L125.363975,8.40235294 Z M124.03022,6.49882353 L123.769981,8.15223529 C123.893848,8 124.052634,7.87764706 124.246811,7.78517647 C124.440516,7.69270588 124.661589,7.64611765 124.908852,7.64611765 C125.148328,7.64611765 125.363975,7.70517647 125.555556,7.82258824 C125.747373,7.93929412 125.896722,8.10141176 126.004545,8.30682353 C126.111661,8.51223529 126.165219,8.74517647 126.165219,9.004 C126.165219,9.34188235 126.084764,9.65223529 125.923619,9.936 C125.762945,10.2197647 125.550602,10.4451765 125.286587,10.6115294 C125.022102,10.7785882 124.743695,10.8618824 124.451133,10.8618824 C124.195377,10.8618824 123.98492,10.8103529 123.819764,10.7072941 C123.654844,10.6047059 123.520359,10.4545882 123.417491,10.2571765 L123.337272,10.7569412 L122.804997,10.7569412 L123.479306,6.49882353 L124.03022,6.49882353 L124.03022,6.49882353 Z" id="Fill-8" fill="#1A1918" sketch:type="MSShapeGroup"></path>
                <path d="M127.217264,10.6395294 L126.505677,7.74494118 L127.062961,7.74494118 L127.600898,9.99764706 L128.838627,7.74494118 L129.433189,7.74494118 L126.970238,12.0588235 L126.381809,12.0588235 L127.217264,10.6395294" id="Fill-9" fill="#1A1918" sketch:type="MSShapeGroup"></path>
                <g id="Group-13">
                    <mask id="mask-2" sketch:name="Clip 11" fill="white">
                        <use xlink:href="#path-1"></use>
                    </mask>
                    <g id="Clip-11"></g>
                    <path d="M61.6924656,6.57741176 C61.3090672,9.08988235 59.3847609,9.08988235 57.5239219,9.08988235 L56.4652703,9.08988235 L57.2077656,4.39929412 C57.2528297,4.11576471 57.4979688,3.90682353 57.7858125,3.90682353 L58.2711359,3.90682353 C59.5378844,3.90682353 60.7343234,3.90682353 61.3513,4.62658824 C61.7203063,5.05741176 61.8319047,5.69552941 61.6924656,6.57741176 L61.6924656,6.57741176 Z M60.8827281,0.0230588235 L53.8642953,0.0230588235 C53.3843984,0.0230588235 52.9759906,0.371294118 52.9011984,0.844 L50.0633422,18.7905882 C50.0071891,19.1444706 50.2818203,19.4649412 50.6411531,19.4649412 L54.2420313,19.4649412 C54.5780063,19.4649412 54.8639625,19.2211765 54.9163406,18.8901176 L55.7211234,13.8021176 C55.7956797,13.3296471 56.2043234,12.9814118 56.6842203,12.9814118 L58.9048641,12.9814118 C63.5275875,12.9814118 66.1955688,10.7503529 66.893,6.32823529 C67.2067969,4.39435294 66.9055047,2.87458824 65.9976172,1.81082353 C64.9993656,0.641411765 63.2305422,0.0230588235 60.8827281,0.0230588235 L60.8827281,0.0230588235 Z" id="Fill-10" fill="#1A1918" sketch:type="MSShapeGroup" mask="url(#mask-2)"></path>
                    <path d="M11.6364375,6.57741176 C11.2530391,9.08988235 9.32873281,9.08988235 7.46812969,9.08988235 L6.40924219,9.08988235 L7.15197344,4.39929412 C7.19680156,4.11576471 7.44194063,3.90682353 7.72978438,3.90682353 L8.21510781,3.90682353 C9.48185625,3.90682353 10.6785313,3.90682353 11.2952719,4.62658824 C11.6642781,5.05741176 11.7761125,5.69552941 11.6364375,6.57741176 L11.6364375,6.57741176 Z M10.8264641,0.0230588235 L3.80826719,0.0230588235 C3.32860625,0.0230588235 2.9199625,0.371294118 2.84517031,0.844 L0.0073140625,18.7905882 C-0.048603125,19.1444706 0.225792188,19.4649412 0.585125,19.4649412 L3.93614531,19.4649412 C4.41580625,19.4649412 4.82445,19.1167059 4.89924219,18.644 L5.66509531,13.8021176 C5.7398875,13.3296471 6.14829531,12.9814118 6.62819219,12.9814118 L8.84883594,12.9814118 C13.4715594,12.9814118 16.1395406,10.7503529 16.8369719,6.32823529 C17.1507688,4.39435294 16.8494766,2.87458824 15.9415891,1.81082353 C14.9433375,0.641411765 13.1745141,0.0230588235 10.8264641,0.0230588235 L10.8264641,0.0230588235 Z" id="Fill-12" fill="#1A1918" sketch:type="MSShapeGroup" mask="url(#mask-2)"></path>
                </g>
                <path d="M27.1196,13.0204706 C26.7951859,14.9352941 25.2707938,16.2209412 23.3266687,16.2209412 C22.351775,16.2209412 21.5715297,15.908 21.0699266,15.3162353 C20.5728062,14.7294118 20.3857078,13.8931765 20.5433141,12.9621176 C20.8460219,11.0642353 22.3947156,9.73741176 24.3093484,9.73741176 C25.2637156,9.73741176 26.0385344,10.0529412 26.5500469,10.6505882 C27.0646266,11.2522353 27.2670609,12.0938824 27.1196,13.0204706 L27.1196,13.0204706 Z M31.8031953,6.49717647 L28.4425016,6.49717647 C28.1546578,6.49717647 27.9095188,6.70588235 27.8646906,6.98964706 L27.7169938,7.92682353 L27.482,7.58729412 C26.7541328,6.53388235 25.1320625,6.18188235 23.5125875,6.18188235 C19.799875,6.18188235 16.6281672,8.98752941 16.0109547,12.9230588 C15.6896078,14.8861176 16.145675,16.7623529 17.2618953,18.072 C18.2875156,19.2750588 19.7510359,19.7757647 21.4946141,19.7757647 C24.4870094,19.7757647 26.1468297,17.8585882 26.1468297,17.8585882 L25.9970094,18.7901176 C25.9406203,19.1442353 26.2152516,19.4649412 26.5748203,19.4649412 L29.6011906,19.4649412 C30.0808516,19.4649412 30.4894953,19.1167059 30.5642875,18.6442353 L32.3810062,7.17129412 C32.4371594,6.81717647 32.1625281,6.49717647 31.8031953,6.49717647 L31.8031953,6.49717647 Z" id="Fill-14" fill="#1A1918" sketch:type="MSShapeGroup"></path>
                <g id="Group-18">
                    <mask id="mask-4" sketch:name="Clip 16" fill="white">
                        <use xlink:href="#path-3"></use>
                    </mask>
                    <g id="Clip-16"></g>
                    <path d="M77.1756281,13.0204706 C76.8509781,14.9352941 75.3268219,16.2209412 73.3826969,16.2209412 C72.4078031,16.2209412 71.6275578,15.908 71.1259547,15.3162353 C70.6288344,14.7294118 70.4417359,13.8931765 70.5993422,12.9621176 C70.90205,11.0642353 72.4507438,9.73741176 74.3653766,9.73741176 C75.3197438,9.73741176 76.0945625,10.0529412 76.6058391,10.6505882 C77.1206547,11.2522353 77.3230891,12.0938824 77.1756281,13.0204706 L77.1756281,13.0204706 Z M81.8589875,6.49717647 L78.4985297,6.49717647 C78.21045,6.49717647 77.9653109,6.70588235 77.9207187,6.98964706 L77.7727859,7.92682353 L77.5380281,7.58729412 C76.8101609,6.53388235 75.1880906,6.18188235 73.5683797,6.18188235 C69.8559031,6.18188235 66.6841953,8.98752941 66.0669828,12.9230588 C65.7456359,14.8861176 66.2017031,16.7623529 67.3179234,18.072 C68.3435437,19.2750588 69.8068281,19.7757647 71.5504062,19.7757647 C74.5430375,19.7757647 76.2028578,17.8585882 76.2028578,17.8585882 L76.0530375,18.7901176 C75.9966484,19.1442353 76.2710438,19.4649412 76.6308484,19.4649412 L79.6572187,19.4649412 C80.1368797,19.4649412 80.5452875,19.1167059 80.6203156,18.6442353 L82.4367984,7.17129412 C82.4929516,6.81717647 82.2185563,6.49717647 81.8589875,6.49717647 L81.8589875,6.49717647 Z" id="Fill-15" fill="#1A1918" sketch:type="MSShapeGroup" mask="url(#mask-4)"></path>
                    <path d="M49.70165,6.49717647 L46.3239687,6.49717647 C46.0009703,6.49717647 45.6987344,6.65717647 45.5172984,6.92352941 L40.8577687,13.7672941 L38.8829719,7.19082353 C38.7595766,6.77952941 38.3797172,6.49717647 37.9488953,6.49717647 L34.6285469,6.49717647 C34.2276891,6.49717647 33.9455078,6.89058824 34.0748016,7.26894118 L37.7941203,18.1567059 L34.295875,23.0792941 C34.0212437,23.4656471 34.2982344,24 34.7731766,24 L38.1477906,24 C38.4674859,24 38.7668906,23.8435294 38.9490344,23.5814118 L50.1824906,7.41317647 C50.4514594,7.02611765 50.1737609,6.49717647 49.70165,6.49717647" id="Fill-17" fill="#1A1918" sketch:type="MSShapeGroup" mask="url(#mask-4)"></path>
                </g>
                <path d="M85.8201422,0.515764706 L82.9395813,18.7908235 C82.8839,19.1447059 83.1582953,19.4649412 83.5176281,19.4649412 L86.4144687,19.4649412 C86.8943656,19.4649412 87.3027734,19.1167059 87.3775656,18.644 L90.2177813,0.697411765 C90.2736984,0.343294118 89.9993031,0.0230588235 89.6397344,0.0230588235 L86.3979531,0.0230588235 C86.1098734,0.0230588235 85.8647344,0.232 85.8201422,0.515764706" id="Fill-19" fill="#1A1918" sketch:type="MSShapeGroup"></path>
                <path d="M99.1060188,18.5218824 L100.358375,18.5218824 C101.325011,18.5218824 101.808447,18.204 101.808447,17.5905882 C101.808447,16.9882353 101.29198,16.6595294 100.281459,16.6595294 L99.1060188,16.6595294 L99.1060188,18.5218824 L99.1060188,18.5218824 Z M99.1060188,14.0301176 L99.1060188,15.7611765 L100.204544,15.7611765 C101.028438,15.7611765 101.4569,15.4543529 101.4569,14.8957647 C101.4569,14.3258824 101.017348,14.0301176 100.193455,14.0301176 L99.1060188,14.0301176 L99.1060188,14.0301176 Z M97.3593734,19.4529412 L97.3593734,18.5218824 L98.0954984,18.5218824 L98.0954984,14.0301176 L97.3593734,14.0301176 L97.3593734,13.0990588 L100.303402,13.0990588 C101.654616,13.0990588 102.478509,13.7232941 102.478509,14.808 C102.478509,15.52 102.061136,15.9583529 101.533816,16.1663529 C102.291647,16.3745882 102.830056,16.9115294 102.830056,17.6454118 C102.830056,18.8065882 101.929247,19.4529412 100.457233,19.4529412 L97.3593734,19.4529412 L97.3593734,19.4529412 Z" id="Fill-20" fill="#1A1918" sketch:type="MSShapeGroup"></path>
                <path d="M108.169086,16.1444706 C108.059139,15.772 107.784508,15.5529412 107.422108,15.5529412 C106.576272,15.5529412 105.77432,16.1774118 105.77432,17.3167059 L105.77432,18.5218824 L107.400166,18.5218824 L107.400166,19.4529412 L103.774986,19.4529412 L103.774986,18.5218824 L104.807448,18.5218824 L104.807448,15.7171765 L103.994644,15.7171765 L103.994644,14.7861176 L105.763231,14.7861176 L105.763231,15.5748235 C106.059805,15.0270588 106.664041,14.6327059 107.465992,14.6327059 C108.366802,14.6327059 108.926917,15.1477647 109.091837,15.8816471 L108.169086,16.1444706" id="Fill-21" fill="#1A1918" sketch:type="MSShapeGroup"></path>
                <path d="M113.112448,17.5687059 C112.805022,17.4590588 112.343528,17.3715294 111.915066,17.3715294 C111.299977,17.3715294 110.70683,17.5687059 110.70683,18.1275294 C110.70683,18.5437647 111.080319,18.7409412 111.59655,18.7409412 C112.310497,18.7409412 113.112448,18.3574118 113.112448,17.7002353 L113.112448,17.5687059 L113.112448,17.5687059 Z M113.112448,16.7362353 L113.112448,16.4731765 C113.112448,15.8157647 112.585128,15.5418824 112.013923,15.5418824 C111.47575,15.5418824 111.014256,15.7611765 110.640767,16.1007059 L110.003736,15.4105882 C110.443052,15.0051765 111.06923,14.6327059 112.013923,14.6327059 C113.189364,14.6327059 114.101263,15.2571765 114.101263,16.4402353 L114.101263,18.5218824 L114.782178,18.5218824 L114.782178,19.4529412 L113.112448,19.4529412 L113.112448,18.96 C112.859759,19.3654118 112.178844,19.6063529 111.508781,19.6063529 C110.541909,19.6063529 109.707163,19.1134118 109.707163,18.1383529 C109.707163,16.9882353 110.838719,16.5498824 111.871181,16.5498824 C112.376559,16.5498824 112.793933,16.6484706 113.112448,16.7362353 L113.112448,16.7362353 Z" id="Fill-22" fill="#1A1918" sketch:type="MSShapeGroup"></path>
                <path d="M117.759473,12.4308235 L118.847145,12.4308235 L118.847145,13.8550588 L117.759473,13.8550588 L117.759473,12.4308235 Z M120.648528,18.5218824 L120.648528,19.4529412 L115.925059,19.4529412 L115.925059,18.5218824 L117.880273,18.5218824 L117.880273,15.7171765 L116.386317,15.7171765 L116.386317,14.7861176 L118.847145,14.7861176 L118.847145,18.5218824 L120.648528,18.5218824 L120.648528,18.5218824 Z" id="Fill-23" fill="#1A1918" sketch:type="MSShapeGroup"></path>
                <path d="M121.813352,18.5218824 L122.527298,18.5218824 L122.527298,15.7171765 L121.857236,15.7171765 L121.857236,14.7861176 L123.483081,14.7861176 L123.483081,15.3887059 C123.768566,14.9284706 124.361712,14.6327059 125.086748,14.6327059 C126.130536,14.6327059 126.877514,15.2901176 126.877514,16.3527059 L126.877514,18.5218824 L127.591461,18.5218824 L127.591461,19.4529412 L125.163664,19.4529412 L125.163664,18.5218824 L125.910642,18.5218824 L125.910642,16.6155294 C125.910642,15.8049412 125.416353,15.5748235 124.965948,15.5748235 C124.230059,15.5748235 123.493934,16.1225882 123.493934,16.9661176 L123.493934,18.5218824 L124.240913,18.5218824 L124.240913,19.4529412 L121.813352,19.4529412 L121.813352,18.5218824" id="Fill-24" fill="#1A1918" sketch:type="MSShapeGroup"></path>
                <path d="M128.920733,15.7171765 L127.701644,15.7171765 L127.701644,14.7861176 L128.920733,14.7861176 L128.920733,13.0990588 L129.887605,13.0990588 L129.887605,14.7861176 L132.16157,14.7861176 L132.16157,15.7171765 L129.887605,15.7171765 L129.887605,17.6781176 C129.887605,18.4014118 130.392983,18.6971765 130.975041,18.6971765 C131.524303,18.6971765 131.985797,18.3903529 132.326255,18.0508235 L132.974375,18.7190588 C132.545912,19.1790588 131.886939,19.6063529 130.975041,19.6063529 C129.7996,19.6063529 128.920733,18.96 128.920733,17.7110588 L128.920733,15.7171765" id="Fill-25" fill="#1A1918" sketch:type="MSShapeGroup"></path>
                <path d="M138.247342,16.1444706 C138.137631,15.772 137.863,15.5529412 137.500364,15.5529412 C136.654528,15.5529412 135.852577,16.1774118 135.852577,17.3167059 L135.852577,18.5218824 L137.478422,18.5218824 L137.478422,19.4529412 L133.853478,19.4529412 L133.853478,18.5218824 L134.885941,18.5218824 L134.885941,15.7171765 L134.073136,15.7171765 L134.073136,14.7861176 L135.841723,14.7861176 L135.841723,15.5748235 C136.138297,15.0270588 136.742533,14.6327059 137.544484,14.6327059 C138.445294,14.6327059 139.005409,15.1477647 139.170094,15.8816471 L138.247342,16.1444706" id="Fill-26" fill="#1A1918" sketch:type="MSShapeGroup"></path>
                <path d="M140.851148,16.6376471 L143.729114,16.6376471 C143.586372,15.9691765 142.993225,15.52 142.334252,15.52 C141.587038,15.52 141.015833,15.9802353 140.851148,16.6376471 L140.851148,16.6376471 Z M144.750723,18.7409412 C144.267523,19.2449412 143.410598,19.6063529 142.455052,19.6063529 C140.883944,19.6063529 139.785655,18.5545882 139.785655,17.1195294 C139.785655,15.6844706 140.851148,14.6327059 142.334252,14.6327059 C143.80603,14.6327059 144.838728,15.7611765 144.838728,17.2948235 L144.838728,17.4590588 L140.807264,17.4590588 C140.971948,18.2369412 141.620069,18.708 142.465905,18.708 C143.168998,18.708 143.773234,18.4232941 144.102603,18.0616471 L144.750723,18.7409412 L144.750723,18.7409412 Z" id="Fill-27" fill="#1A1918" sketch:type="MSShapeGroup"></path>
                <path d="M146.860241,16.6376471 L149.738442,16.6376471 C149.595464,15.9691765 149.002317,15.52 148.343108,15.52 C147.59613,15.52 147.024925,15.9802353 146.860241,16.6376471 L146.860241,16.6376471 Z M150.760052,18.7409412 C150.276616,19.2449412 149.419691,19.6063529 148.464144,19.6063529 C146.893272,19.6063529 145.794747,18.5545882 145.794747,17.1195294 C145.794747,15.6844706 146.860241,14.6327059 148.343108,14.6327059 C149.815358,14.6327059 150.84782,15.7611765 150.84782,17.2948235 L150.84782,17.4590588 L146.816356,17.4590588 C146.981041,18.2369412 147.629161,18.708 148.474997,18.708 C149.178091,18.708 149.782327,18.4232941 150.111931,18.0616471 L150.760052,18.7409412 L150.760052,18.7409412 Z" id="Fill-28" fill="#1A1918" sketch:type="MSShapeGroup"></path>
            </g>
        </g>
    </g>
</svg>
